# xmcd
#
# Track frame offsets:
#       150
#       29185
#       46385
#       64109
#       77747
#       95143
#       108415
#       127564
#       146219
#       160301
#       174515
#       189597
#
# Disc length: 2711 seconds
#
# Revision: 1
# Processed by: cddbd v1.5.2PL0 Copyright (c) Steve Scherf et al.
# Submitted via: MusiCat 1.1
#
DISCID=a80a950c
DTITLE=Bert Jansch - The Black Swan
DYEAR=2006
DGENRE=
TTITLE0=The Black Swan
TTITLE1=High Days
TTITLE2=When The Sun Comes Up
TTITLE3=Katie Cruel
TTITLE4=My Pocket's Empty
TTITLE5=Watch The Stars
TTITLE6=A Woman Like You
TTITLE7=The Old Triangle
TTITLE8=Being Your Religion
TTITLE9=Texas Cowboy Blues
TTITLE10=Magdalina's Dance
TTITLE11=Hey Pretty Girl
EXTD=Sanctuary\nSANCD430\n
EXTT0=
EXTT1=
EXTT2=
EXTT3=
EXTT4=
EXTT5=
EXTT6=
EXTT7=
EXTT8=
EXTT9=
EXTT10=
EXTT11=
PLAYORDER=
